<svg width="25" height="18" viewBox="0 0 25 18" fill="none" xmlns="http://www.w3.org/2000/svg">
<g clip-path="url(#clip0)">
<path fill-rule="evenodd" clip-rule="evenodd" d="M13.3992 10.8833L16.0469 9.04809C17.3191 8.16652 18.3766 7.43722 19.5852 6.58771L24.4752 3.19768C25.1192 2.7569 24.992 2.94924 24.992 2.1959L24.9841 1.60285C24.9841 0.721282 24.2684 0 23.3859 0H1.6076C1.16234 0 0.78068 0.160285 0.470584 0.472841C0.160488 0.793411 0.00146484 1.17809 0.00146484 1.61888L0.00941602 2.93321C0.0412207 3.02137 2.96725 4.97685 3.11037 5.08103C3.6431 5.46572 4.15198 5.80232 4.68471 6.16296L11.7135 10.9795C12.1509 11.2841 12.6995 11.4443 13.3992 10.8833Z" fill="#969696"/>
<path fill-rule="evenodd" clip-rule="evenodd" d="M3.01456 18L21.9702 17.9839C22.2723 17.9839 22.5267 17.8156 22.646 17.5351C22.7573 17.2546 22.7017 16.9501 22.487 16.7337C21.5169 15.748 20.2925 14.5298 20.1732 14.4096C19.8631 14.081 16.6906 10.8513 16.5952 10.8513C16.5395 10.8513 15.5377 11.5645 14.5438 12.2698C12.4526 13.7364 12.4924 13.5841 10.433 12.2698C10.2501 12.1496 9.50271 11.6286 8.95408 11.26C8.60423 11.0196 8.15101 11.0676 7.85682 11.3642L2.62495 16.6215C2.59314 16.6536 2.55339 16.6856 2.50568 16.7337C2.291 16.9421 2.21944 17.2546 2.33871 17.5351C2.45002 17.8237 2.70446 18 3.01456 18Z" fill="#969696"/>
<path fill-rule="evenodd" clip-rule="evenodd" d="M5.2567 8.71147C4.45363 8.15849 3.61081 7.58948 3.42793 7.46926L1.71843 6.29918C1.5117 6.15493 1.32882 6.03471 1.13799 5.89847C0.90741 5.7462 0.629119 5.73017 0.382633 5.86641C0.144098 5.99464 0.000976562 6.23507 0.000976562 6.51557L0.0168789 14.9305C0.0168789 15.2351 0.183854 15.4915 0.462145 15.6117C0.740436 15.7239 1.04258 15.6598 1.25726 15.4515L5.48729 11.1799C5.83714 10.8352 5.98821 10.3864 5.94845 9.88956C5.90075 9.4007 5.66221 8.99197 5.2567 8.71147Z" fill="#969696"/>
<path fill-rule="evenodd" clip-rule="evenodd" d="M19.7201 8.72752C20.5231 8.18256 21.3659 7.60553 21.5409 7.49333L23.2504 6.32325C23.4571 6.17899 23.64 6.05077 23.8388 5.92254C24.0693 5.77027 24.3397 5.75424 24.5862 5.88247C24.8327 6.01069 24.9758 6.25112 24.9678 6.53162L24.9599 14.9546C24.9599 15.2511 24.7849 15.5156 24.5067 15.6278C24.2284 15.748 23.9262 15.6839 23.7115 15.4675L19.4895 11.2039C19.1396 10.8513 18.9806 10.4105 19.0283 9.91363C19.076 9.41675 19.3145 9.00802 19.7201 8.72752Z" fill="#969696"/>
</g>
<defs>
<clipPath id="clip0">
<rect width="25" height="18" fill="white"/>
</clipPath>
</defs>
</svg>
