<svg width="19" height="23" viewBox="0 0 19 23" fill="none" xmlns="http://www.w3.org/2000/svg">
<path d="M18.3665 9.1837C18.3665 4.11124 14.2553 0 9.1837 0C4.11124 0 0 4.11124 0 9.1837C0 10.0915 0.134062 10.9677 0.379405 11.7975C1.68673 17.0855 9.22489 23 9.22489 23C9.22489 23 17.7409 16.3223 18.2421 10.8117L18.2202 10.8073C18.3148 10.2807 18.3665 9.73835 18.3665 9.1837ZM9.309 11.2288C7.2341 11.2288 5.55175 9.54646 5.55175 7.47156C5.55175 5.39666 7.2341 3.71431 9.309 3.71431C11.383 3.71431 13.0654 5.39666 13.0654 7.47156C13.0654 9.54646 11.383 11.2288 9.309 11.2288Z" fill="#969696"/>
</svg>
