<svg width="24" height="23" viewBox="0 0 24 23" fill="none" xmlns="http://www.w3.org/2000/svg">
<path fill-rule="evenodd" clip-rule="evenodd" d="M21.8678 6.16362H22.0108C23.0639 6.16362 23.9219 7.03249 23.9219 8.08291V17.0309C23.9219 18.0813 23.0639 18.9372 22.0108 18.9372H9.1267C9.1267 19.0539 9.1267 19.1707 9.1267 19.2744C9.10069 20.5193 8.61965 21.4141 7.9826 22.0107C7.34555 22.6072 6.52648 22.8925 5.83742 22.9314C5.77242 22.9314 5.70741 22.9314 5.6294 22.9314C4.83634 22.9055 3.83526 22.4905 3.10719 21.6605C2.57415 21.0381 2.19712 20.1044 2.19712 19.028H0.571984C0.298961 19.028 0.0649414 18.7946 0.0649414 18.5223V3.46625C0.0649414 3.19392 0.298961 2.9605 0.571984 2.9605H4.87534C5.16137 2.9605 5.38238 3.19392 5.38238 3.46625V18.5223C5.38238 18.7946 5.16137 19.028 4.87534 19.028H3.38022C3.39322 19.7802 3.65324 20.4675 4.01727 20.8954C4.49831 21.453 5.16137 21.7383 5.66841 21.7383C5.69441 21.7513 5.73341 21.7383 5.78542 21.7383C6.22745 21.7254 6.7475 21.5309 7.17653 21.1418C7.60557 20.7398 7.9176 20.1303 7.9436 19.2485C7.9436 19.1577 7.9436 18.8983 7.9306 18.7946C7.24154 18.4963 6.7475 17.822 6.7475 17.0309V8.08291C6.7475 7.05843 7.57957 6.2155 8.59365 6.17659V0.0686035H21.8678V6.16362ZM11.3369 14.3984C11.9219 14.3984 12.39 14.8782 12.39 15.4618C12.39 16.0453 11.9219 16.5122 11.3369 16.5122C10.7518 16.5122 10.2838 16.0453 10.2838 15.4618C10.2838 14.8782 10.7518 14.3984 11.3369 14.3984ZM11.3369 10.5858C11.9219 10.5858 12.39 11.0526 12.39 11.6362C12.39 12.2197 11.9219 12.6866 11.3369 12.6866C10.7518 12.6866 10.2838 12.2197 10.2838 11.6362C10.2838 11.0526 10.7518 10.5858 11.3369 10.5858ZM15.2892 10.5858C15.8613 10.5858 16.3423 11.0526 16.3423 11.6362C16.3423 12.2197 15.8613 12.6866 15.2892 12.6866C14.7042 12.6866 14.2231 12.2197 14.2231 11.6362C14.2231 11.0526 14.7042 10.5858 15.2892 10.5858ZM19.1115 10.5858C19.6966 10.5858 20.1776 11.0526 20.1776 11.6362C20.1776 12.2197 19.6966 12.6866 19.1115 12.6866C18.5265 12.6866 18.0584 12.2197 18.0584 11.6362C18.0584 11.0526 18.5265 10.5858 19.1115 10.5858ZM19.1115 14.3984C19.6966 14.3984 20.1776 14.8782 20.1776 15.4618C20.1776 16.0453 19.6966 16.5122 19.1115 16.5122C18.5265 16.5122 18.0584 16.0453 18.0584 15.4618C18.0584 14.8782 18.5265 14.3984 19.1115 14.3984ZM15.2892 14.3984C15.8613 14.3984 16.3423 14.8782 16.3423 15.4618C16.3423 16.0453 15.8613 16.5122 15.2892 16.5122C14.7042 16.5122 14.2231 16.0453 14.2231 15.4618C14.2231 14.8782 14.7042 14.3984 15.2892 14.3984ZM10.2838 2.00085H20.3986V7.87542H10.2838V2.00085Z" fill="#969696"/>
</svg>
